# xmcd CD database file
#
# Track frame offsets:
#	150
#	11473
#	23977
#	38917
#	52617
#	65262
#	79837
#	92356
#	104966
#	115818
#	130551
#	142441
#	153825
#	167138
#	181546
#	194119
#	207827
#	219718
#	233864
#	247275
#
# Disc length: 3496 seconds
#
# Revision: 1
# Processed by: cddbd v1.5.2PL0 Copyright (c) Steve Scherf et al.
# Submitted via: CDex 1.70beta2
#
DISCID=180da614
DTITLE=Django Reinhardt and Stéphane Grappelli - Les Rois du Swing Manouche 3
DYEAR=2009
DGENRE=Jazz
TTITLE0=I've got my love to keep me warm
TTITLE1=Hungaria (take 1)
TTITLE2=Swing 39
TTITLE3=I wonder where my baby is tonight (take 1)
TTITLE4=My melancoly baby
TTITLE5=Tea for two
TTITLE6=Hungaria
TTITLE7=Stockholm
TTITLE8=Youger generation
TTITLE9=Out of nowhere
TTITLE10=Baby
TTITLE11=Undecided
TTITLE12=H.C.O. Strut
TTITLE13=The man I love
TTITLE14=Echoes of France (La Marseillaise)
TTITLE15=Coquette
TTITLE16=Django's tiger
TTITLE17=Embraceable you
TTITLE18=Belleville
TTITLE19=Nuages (take 1)
EXTD=YEAR: 2009
EXTT0=
EXTT1=
EXTT2=
EXTT3=
EXTT4=
EXTT5=
EXTT6=
EXTT7=
EXTT8=
EXTT9=
EXTT10=
EXTT11=
EXTT12=
EXTT13=
EXTT14=
EXTT15=
EXTT16=
EXTT17=
EXTT18=
EXTT19=
PLAYORDER=
